<svg width="1040" height="369" viewBox="0 0 1040 369" fill="none" xmlns="http://www.w3.org/2000/svg">
<g opacity="0.5">
<path opacity="0.0344828" d="M601.794 304.109C456.874 384.49 337.112 466.237 260.632 533.413C222.386 567.006 195.002 596.923 180.693 621.179C173.537 633.309 169.676 643.984 169.327 652.97C168.979 661.951 172.138 669.18 178.915 674.519C185.693 679.858 195.915 683.171 209.357 684.503C222.806 685.837 239.379 685.176 258.693 682.625C297.316 677.522 346.642 664.891 403.332 645.827C516.696 607.706 659.283 543.94 804.203 463.559C949.124 383.179 1068.89 301.432 1145.37 234.255C1183.61 200.662 1211 170.746 1225.3 146.489C1232.46 134.36 1236.32 123.685 1236.67 114.699C1237.02 105.718 1233.86 98.4881 1227.08 93.149C1220.3 87.81 1210.08 84.4982 1196.64 83.1656C1183.19 81.8322 1166.62 82.4921 1147.31 85.0438C1108.68 90.1468 1059.36 102.778 1002.67 121.841C889.302 159.962 746.715 223.728 601.794 304.109Z" stroke="#00D897" stroke-width="2"/>
<path opacity="0.0689655" d="M591.638 313.839C457.872 402.259 349.351 490.591 282.024 561.912C248.356 597.578 225.025 628.953 213.971 653.936C208.444 666.427 206.005 677.281 206.842 686.253C207.679 695.219 211.78 702.256 219.265 707.204C226.75 712.151 237.396 714.862 250.959 715.415C264.533 715.969 280.953 714.357 299.851 710.703C337.646 703.396 385.111 687.974 439.067 665.719C546.964 621.216 680.594 549.481 814.36 461.061C948.126 372.64 1056.65 284.309 1123.98 212.987C1157.64 177.321 1180.97 145.946 1192.03 120.964C1197.56 108.472 1199.99 97.618 1199.16 88.6459C1198.32 79.6802 1194.22 72.643 1186.73 67.6953C1179.25 62.7477 1168.6 60.0367 1155.04 59.4837C1141.47 58.9302 1125.05 60.5427 1106.15 64.1961C1068.35 71.503 1020.89 86.9251 966.932 109.18C859.035 153.684 725.404 225.418 591.638 313.839Z" stroke="#00D897" stroke-width="2"/>
<path opacity="0.103448" d="M582.327 324.135C460.733 419.922 364.278 514.164 306.617 589.086C277.782 626.553 258.681 659.147 250.964 684.665C243.229 710.245 247.016 728.422 263.294 737.451C279.573 746.48 307.31 745.788 344.078 736.311C380.756 726.856 426 708.763 476.813 683.486C578.422 632.941 702.079 553.785 823.673 457.998C945.267 362.211 1041.72 267.969 1099.38 193.047C1128.22 155.581 1147.32 122.986 1155.04 97.4683C1162.77 71.8879 1158.99 53.7113 1142.71 44.6824C1126.43 35.6535 1098.69 36.3451 1061.92 45.8224C1025.24 55.2765 980.001 73.3706 929.189 98.6473C827.579 149.193 703.921 228.348 582.327 324.135Z" stroke="#00D897" stroke-width="2"/>
<path opacity="0.137931" d="M573.935 334.945C465.438 437.369 381.78 536.803 334.222 614.754C310.439 653.736 295.712 687.3 291.391 713.159C287.061 739.067 293.213 756.979 310.665 765.057C328.117 773.135 355.686 770.829 391.036 759.279C426.319 747.751 468.996 727.123 516.278 699.018C610.827 642.817 723.57 556.844 832.067 454.421C940.564 351.997 1024.22 252.563 1071.78 174.612C1095.56 135.631 1110.29 102.066 1114.61 76.2073C1118.94 50.2996 1112.79 32.3876 1095.34 24.3098C1077.88 16.2321 1050.32 18.5371 1014.97 30.0871C979.683 41.6154 937.005 62.2434 889.724 90.3485C795.175 146.55 682.432 232.522 573.935 334.945Z" stroke="#00D897" stroke-width="2"/>
<path opacity="0.172414" d="M566.523 346.215C471.948 454.495 401.724 558.363 364.628 638.749C346.078 678.948 335.835 713.227 334.94 739.23C334.044 765.27 342.522 782.781 361.015 789.839C379.508 796.897 406.69 792.995 440.359 779.462C473.979 765.948 513.768 742.945 557.159 712.226C643.93 650.797 744.901 558.663 839.476 450.384C934.051 342.104 1004.27 238.236 1041.37 157.85C1059.92 117.652 1070.16 83.3728 1071.06 57.3696C1071.96 31.3295 1063.48 13.8179 1044.98 6.76025C1026.49 -0.297171 999.308 3.60516 965.64 17.1381C932.019 30.6519 892.231 53.6551 848.839 84.3738C762.069 145.802 661.098 237.936 566.523 346.215Z" stroke="#00D897" stroke-width="2"/>
<path opacity="0.206897" d="M560.155 357.886C480.22 471.197 423.964 578.708 397.611 660.917C384.433 702.027 378.749 736.758 381.286 762.708C383.825 788.685 394.573 805.662 413.964 811.639C433.355 817.616 459.938 812.146 491.675 796.734C523.379 781.338 559.976 756.136 599.148 723.038C677.48 656.851 765.914 559.258 845.849 445.947C925.783 332.636 982.04 225.124 1008.39 142.916C1021.57 101.806 1027.25 67.0733 1024.72 41.1233C1022.18 15.1467 1011.43 -1.82959 992.038 -7.80651C972.647 -13.7833 946.065 -8.31402 914.328 7.09766C882.624 22.4935 846.027 47.697 806.855 80.795C728.523 146.982 640.089 244.575 560.155 357.886Z" stroke="#00D897" stroke-width="2"/>
<path opacity="0.241379" d="M554.873 369.896C490.185 487.376 448.322 597.712 432.911 681.117C425.204 722.826 424.121 757.747 430.069 783.447C436.021 809.166 448.964 825.476 469.102 830.321C489.239 835.165 515.014 828.171 544.583 810.998C574.131 793.837 607.26 766.626 641.915 731.401C711.215 660.96 786.44 558.651 851.127 441.172C915.814 323.692 957.678 213.357 973.089 129.951C980.796 88.2425 981.878 53.3214 975.931 27.6214C969.979 1.90247 957.036 -14.4074 936.899 -19.2523C916.762 -24.0971 890.986 -17.1027 861.416 0.0705048C831.869 17.2309 798.74 44.4419 764.085 79.6669C694.785 150.108 619.56 252.417 554.873 369.896Z" stroke="#00D897" stroke-width="2"/>
<path opacity="0.275862" d="M550.72 382.177C501.771 502.931 474.617 615.253 470.262 699.221C468.084 741.211 471.61 776.056 480.922 801.312C490.239 826.58 505.283 842.097 526.008 845.768C546.733 849.438 571.499 840.973 598.681 822.169C625.849 803.374 655.261 774.363 685.136 737.279C744.88 663.121 806.326 556.873 855.275 436.119C904.224 315.366 931.377 203.045 935.733 119.076C937.91 77.0867 934.384 42.2414 925.072 16.9859C915.755 -8.28285 900.711 -23.7993 879.986 -27.4701C859.261 -31.1409 834.495 -22.6754 807.313 -3.87128C780.145 14.923 750.734 43.9344 720.858 81.0182C661.115 155.177 599.669 261.424 550.72 382.177Z" stroke="#00D897" stroke-width="2"/>
<path opacity="0.310345" d="M547.735 394.668C514.895 517.778 502.655 631.23 509.388 715.124C512.754 757.076 520.861 791.582 533.466 816.202C546.075 840.831 563.11 855.432 584.259 857.898C605.408 860.363 628.971 850.493 653.564 830.2C678.147 809.914 703.619 779.322 728.489 740.661C778.224 663.349 825.425 553.971 858.265 430.861C891.105 307.752 903.344 194.3 896.612 110.406C893.246 68.454 885.139 33.9483 872.534 9.32822C859.924 -15.3013 842.889 -29.9027 821.74 -32.3677C800.591 -34.8326 777.029 -24.963 752.436 -4.66971C727.852 15.6159 702.381 46.2078 677.511 84.8686C627.776 162.181 580.575 271.558 547.735 394.668Z" stroke="#00D897" stroke-width="2"/>
<path opacity="0.344828" d="M545.936 407.299C529.454 531.829 532.22 645.551 549.987 728.734C558.872 770.33 571.496 804.235 587.298 828.033C603.105 851.839 622.002 865.41 643.407 866.648C664.813 867.885 686.988 856.69 708.808 835.06C730.622 813.437 751.961 781.496 771.638 741.552C810.988 661.672 843.587 549.996 860.069 425.465C876.552 300.935 873.785 187.213 856.018 104.03C847.133 62.4338 834.509 28.5284 818.707 4.72996C802.9 -19.0756 784.003 -32.6457 762.598 -33.8837C741.193 -35.1216 719.018 -23.9266 697.197 -2.29708C675.383 19.326 654.044 51.2672 634.367 91.2117C595.017 171.092 562.418 282.768 545.936 407.299Z" stroke="#00D897" stroke-width="2"/>
<path opacity="0.37931" d="M545.332 420C545.332 545.005 563.082 658.133 591.749 739.974C606.084 780.899 623.13 813.948 642.01 836.745C660.894 859.548 681.51 871.98 703.001 871.98C724.492 871.98 745.107 859.548 763.991 836.745C782.87 813.948 799.917 780.899 814.252 739.974C842.919 658.133 860.669 545.005 860.669 420C860.669 294.994 842.919 181.866 814.252 100.025C799.917 59.0995 782.87 26.0514 763.991 3.25439C745.107 -19.5487 724.492 -31.9808 703.001 -31.981C681.51 -31.981 660.894 -19.5489 642.01 3.25439C623.131 26.0514 606.084 59.0996 591.749 100.025C563.082 181.866 545.332 294.994 545.332 420Z" stroke="#00D897" stroke-width="2"/>
<path opacity="0.413793" d="M545.934 432.7C562.416 557.231 595.015 668.907 634.365 748.787C654.042 788.731 675.381 820.672 697.195 842.295C719.015 863.925 741.19 875.12 762.596 873.883C784.001 872.645 802.898 859.074 818.705 835.268C834.507 811.47 847.131 777.565 856.016 735.969C873.783 652.786 876.549 539.064 860.067 414.534C843.585 290.003 810.986 178.326 771.636 98.4466C751.959 58.5022 730.62 26.561 708.806 4.9379C686.986 -16.6917 664.81 -27.8865 643.405 -26.6487C622 -25.4108 603.103 -11.8406 587.296 11.9649C571.494 35.7634 558.87 69.6687 549.985 111.265C532.218 194.448 529.451 308.17 545.934 432.7Z" stroke="#00D897" stroke-width="2"/>
<path opacity="0.448276" d="M547.738 445.33C580.578 568.44 627.778 677.818 677.513 755.13C702.383 793.791 727.855 824.383 752.439 844.669C777.032 864.962 800.594 874.832 821.743 872.367C842.892 869.902 859.927 855.3 872.537 830.671C885.142 806.051 893.248 771.545 896.615 729.593C903.347 645.699 891.107 532.247 858.267 409.137C825.427 286.027 778.227 176.65 728.492 99.3376C703.622 60.6768 678.15 30.0849 653.567 9.79927C628.973 -10.4941 605.411 -20.3636 584.261 -17.8986C563.112 -15.4334 546.078 -0.832164 533.468 23.7972C520.864 48.4173 512.757 82.9229 509.39 124.875C502.658 208.769 514.898 322.22 547.738 445.33Z" stroke="#00D897" stroke-width="2"/>
<path opacity="0.482759" d="M550.722 457.819C599.671 578.573 661.117 684.821 720.861 758.98C750.736 796.063 780.148 825.075 807.316 843.869C834.498 862.673 859.263 871.139 879.989 867.468C900.714 863.797 915.758 848.28 925.075 823.012C934.387 797.756 937.913 762.911 935.735 720.922C931.38 636.953 904.226 524.631 855.277 403.878C806.328 283.124 744.882 176.877 685.139 102.718C655.263 65.6346 625.852 36.6232 598.684 17.8289C571.501 -0.975213 546.736 -9.4407 526.011 -5.7699C505.286 -2.0991 490.241 13.4174 480.925 38.6861C471.613 63.9416 468.086 98.7869 470.264 140.776C474.62 224.745 501.773 337.066 550.722 457.819Z" stroke="#00D897" stroke-width="2"/>
<path opacity="0.517241" d="M554.873 470.104C619.56 587.583 694.785 689.893 764.085 760.333C798.74 795.558 831.869 822.769 861.416 839.93C890.986 857.103 916.762 864.097 936.899 859.252C957.036 854.407 969.979 838.098 975.931 812.379C981.878 786.679 980.796 751.758 973.089 710.049C957.678 626.644 915.815 516.308 851.127 398.828C786.44 281.349 711.215 179.04 641.915 108.599C607.26 73.3739 574.131 46.1629 544.584 29.0025C515.014 11.8295 489.239 4.8349 469.102 9.67954C448.965 14.5244 436.021 30.8343 430.069 56.5534C424.122 82.2535 425.204 117.174 432.911 158.883C448.322 242.289 490.185 352.624 554.873 470.104Z" stroke="#00D897" stroke-width="2"/>
<path opacity="0.551724" d="M560.151 482.112C640.086 595.423 728.52 693.016 806.852 759.203C846.024 792.301 882.621 817.504 914.324 832.9C946.061 848.312 972.644 853.782 992.035 847.805C1011.43 841.828 1022.17 824.851 1024.71 798.874C1027.25 772.924 1021.57 738.193 1008.39 697.083C982.036 614.874 925.78 507.362 845.845 394.052C765.911 280.741 677.477 183.148 599.145 116.961C559.973 83.8627 523.375 58.6595 491.671 43.2637C459.934 27.852 433.352 22.3826 413.961 28.3595C394.57 34.3365 383.821 51.3126 381.282 77.2893C378.745 103.239 384.429 137.971 397.608 179.081C423.96 261.29 480.217 368.802 560.151 482.112Z" stroke="#00D897" stroke-width="2"/>
<path opacity="0.586207" d="M566.525 493.783C661.1 602.063 762.072 694.197 848.842 755.625C892.234 786.344 932.022 809.347 965.643 822.861C999.311 836.394 1026.49 840.296 1044.99 833.239C1063.48 826.181 1071.96 808.67 1071.06 782.629C1070.17 756.626 1059.92 722.348 1041.37 682.149C1004.28 601.763 934.054 497.894 839.479 389.615C744.904 281.335 643.932 189.202 557.162 127.773C513.771 97.0544 473.982 74.0512 440.362 60.5374C406.693 47.0043 379.511 43.1022 361.018 50.1599C342.525 57.2176 334.047 74.729 334.943 100.769C335.837 126.772 346.081 161.051 364.631 201.25C401.727 281.636 471.95 385.504 566.525 493.783Z" stroke="#00D897" stroke-width="2"/>
<path opacity="0.62069" d="M573.933 505.052C682.43 607.476 795.173 693.448 889.723 749.65C937.004 777.755 979.682 798.382 1014.96 809.91C1050.31 821.461 1077.88 823.766 1095.34 815.688C1112.79 807.611 1118.94 789.698 1114.61 763.79C1110.29 737.931 1095.56 704.367 1071.78 665.386C1024.22 587.435 940.563 488 832.066 385.577C723.569 283.153 610.826 197.182 516.277 140.98C468.995 112.875 426.317 92.2469 391.034 80.7186C355.684 69.1686 328.116 66.8637 310.664 74.9413C293.212 83.019 287.06 100.931 291.389 126.839C295.71 152.698 310.438 186.262 334.221 225.244C381.779 303.195 465.436 402.629 573.933 505.052Z" stroke="#00D897" stroke-width="2"/>
<path opacity="0.655172" d="M582.328 515.865C703.922 611.652 827.579 690.806 929.188 741.352C980.001 766.629 1025.24 784.723 1061.92 794.177C1098.69 803.654 1126.43 804.346 1142.71 795.317C1158.99 786.288 1162.77 768.111 1155.04 742.531C1147.32 717.013 1128.22 684.418 1099.38 646.952C1041.72 572.03 945.267 477.789 823.673 382.001C702.079 286.214 578.422 207.059 476.813 156.513C426 131.236 380.756 113.143 344.078 103.689C307.31 94.2115 279.572 93.5195 263.294 102.548C247.016 111.577 243.229 129.754 250.964 155.335C258.68 180.853 277.781 213.447 306.616 250.913C364.278 325.835 460.734 420.077 582.328 515.865Z" stroke="#00D897" stroke-width="2"/>
<path opacity="0.689655" d="M591.64 526.16C725.406 614.581 859.037 686.314 966.934 730.818C1020.89 753.073 1068.36 768.495 1106.15 775.802C1125.05 779.455 1141.47 781.068 1155.04 780.514C1168.6 779.961 1179.25 777.25 1186.74 772.303C1194.22 767.355 1198.32 760.318 1199.16 751.352C1200 742.38 1197.56 731.526 1192.03 719.034C1180.98 694.052 1157.64 662.677 1123.98 627.011C1056.65 555.69 948.128 467.359 814.362 378.938C680.596 290.517 546.966 218.782 439.069 174.279C385.112 152.024 337.647 136.602 299.852 129.295C280.954 125.641 264.534 124.029 250.961 124.583C237.397 125.136 226.751 127.847 219.266 132.794C211.781 137.742 207.68 144.779 206.843 153.745C206.006 162.717 208.445 173.571 213.972 186.062C225.026 211.045 248.357 242.42 282.026 278.086C349.352 349.407 457.874 437.739 591.64 526.16Z" stroke="#00D897" stroke-width="2"/>
<path opacity="0.724138" d="M601.796 535.89C746.716 616.271 889.304 680.037 1002.67 718.158C1059.36 737.222 1108.68 749.853 1147.31 754.956C1166.62 757.507 1183.19 758.167 1196.64 756.834C1210.08 755.501 1220.31 752.189 1227.08 746.85C1233.86 741.511 1237.02 734.281 1236.67 725.3C1236.32 716.314 1232.46 705.64 1225.31 693.51C1211 669.254 1183.61 639.337 1145.37 605.744C1068.89 538.568 949.126 456.821 804.205 376.44C659.285 296.059 516.698 232.293 403.334 194.172C346.644 175.109 297.318 162.478 258.695 157.375C239.381 154.823 222.807 154.163 209.359 155.496C195.917 156.829 185.695 160.141 178.917 165.48C172.14 170.819 168.981 178.048 169.329 187.03C169.678 196.016 173.539 206.691 180.695 218.82C195.004 243.077 222.388 272.993 260.634 306.586C337.114 373.763 456.876 455.51 601.796 535.89Z" stroke="#00D897" stroke-width="2"/>
<path opacity="0.758621" d="M612.718 545.01C767.689 616.737 918.148 672.049 1036.11 703.496C1095.11 719.222 1145.92 728.965 1185.08 731.824C1204.66 733.254 1221.26 732.957 1234.48 730.854C1247.7 728.751 1257.42 724.865 1263.44 719.181C1269.47 713.496 1271.66 706.131 1270.13 697.201C1268.6 688.268 1263.34 677.854 1254.61 666.179C1237.16 642.834 1205.93 614.605 1163.39 583.341C1078.34 520.822 948.252 446.283 793.28 374.555C638.309 302.827 487.849 247.515 369.883 216.068C310.891 200.342 260.079 190.599 220.921 187.74C201.339 186.31 184.737 186.608 171.515 188.711C158.296 190.813 148.576 194.699 142.555 200.383C136.533 206.067 134.334 213.434 135.866 222.364C137.398 231.297 142.654 241.71 151.383 253.385C168.841 276.73 200.07 304.959 242.602 336.223C327.655 398.742 457.746 473.282 612.718 545.01Z" stroke="#00D897" stroke-width="2"/>
<path opacity="0.793103" d="M624.325 553.476C788.168 616.004 945.353 662.439 1067.02 686.972C1127.87 699.24 1179.78 706.02 1219.17 706.613C1238.87 706.909 1255.38 705.655 1268.28 702.798C1281.17 699.94 1290.32 695.514 1295.54 689.533C1300.76 683.551 1301.99 676.104 1299.29 667.291C1296.58 658.48 1289.97 648.406 1279.73 637.276C1259.26 615.021 1224.42 588.695 1177.93 559.998C1084.95 502.614 945.52 435.85 781.678 373.322C617.835 310.794 460.649 264.359 338.978 239.826C278.134 227.558 226.223 220.777 186.828 220.185C167.127 219.889 150.624 221.142 137.727 223.999C124.829 226.857 115.686 231.284 110.462 237.265C105.237 243.247 104.009 250.693 106.715 259.506C109.419 268.317 116.029 278.391 126.267 289.521C146.741 311.777 181.579 338.103 228.075 366.8C321.052 424.184 460.482 490.948 624.325 553.476Z" stroke="#00D897" stroke-width="2"/>
<path opacity="0.827586" d="M636.52 561.254C807.987 614.106 970.702 651.31 1095.15 668.741C1157.38 677.457 1210 681.221 1249.33 679.541C1269 678.701 1285.28 676.502 1297.75 672.912C1310.23 669.32 1318.73 664.389 1323.12 658.159C1327.52 651.929 1327.77 644.457 1323.91 635.828C1320.05 627.205 1312.14 617.548 1300.47 607.048C1277.13 586.053 1238.95 561.831 1188.85 535.921C1088.65 484.109 940.947 425.63 769.48 372.778C598.012 319.926 435.297 282.722 310.848 265.291C248.615 256.574 196.002 252.81 156.671 254.49C137.001 255.33 120.722 257.529 108.249 261.119C95.7685 264.712 87.2717 269.643 82.8771 275.873C78.4824 282.102 78.2291 289.574 82.0884 298.203C85.9452 306.827 93.861 316.484 105.531 326.984C128.865 347.979 167.046 372.201 217.151 398.111C317.346 449.923 465.053 508.402 636.52 561.254Z" stroke="#00D897" stroke-width="2"/>
<path opacity="0.862069" d="M649.216 568.313C827.002 611.086 994.008 638.775 1120.29 648.97C1183.44 654.068 1236.35 654.788 1275.31 650.848C1294.8 648.878 1310.73 645.748 1322.69 641.452C1334.66 637.151 1342.45 631.755 1345.99 625.326C1349.52 618.898 1348.81 611.454 1343.82 603.075C1338.84 594.705 1329.68 585.539 1316.67 575.749C1290.65 556.175 1249.41 534.243 1196.08 511.317C1089.43 465.473 934.574 415.724 756.787 372.951C579.001 330.178 411.996 302.489 285.717 292.294C222.568 287.196 169.654 286.477 130.688 290.416C111.2 292.387 95.2688 295.516 83.3148 299.812C71.3467 304.113 63.5573 309.509 60.0176 315.937C56.4779 322.366 57.1973 329.809 62.1832 338.189C67.1633 346.559 76.3242 355.726 89.3368 365.516C115.355 385.09 156.589 407.021 209.921 429.947C316.571 475.791 471.43 525.539 649.216 568.313Z" stroke="#00D897" stroke-width="2"/>
<path opacity="0.896552" d="M662.31 574.63C845.061 606.998 1015.08 624.961 1142.23 627.842C1205.81 629.283 1258.63 626.951 1296.93 620.781C1316.08 617.695 1331.55 613.658 1342.89 608.689C1354.25 603.712 1361.28 597.893 1363.95 591.314C1366.62 584.735 1364.93 577.373 1358.86 569.307C1352.79 561.254 1342.45 552.648 1328.2 543.644C1299.69 525.641 1255.72 506.167 1199.57 486.401C1087.27 446.874 926.443 406.236 743.691 373.867C560.939 341.499 390.915 323.536 263.768 320.655C200.186 319.214 147.374 321.545 109.072 327.716C89.915 330.802 74.4531 334.839 63.109 339.808C51.7454 344.785 44.7179 350.604 42.051 357.183C39.3842 363.762 41.0688 371.124 47.1448 379.19C53.2106 387.242 63.5476 395.848 77.8037 404.853C106.307 422.856 150.279 442.33 206.433 462.096C318.725 501.623 479.558 542.261 662.31 574.63Z" stroke="#00D897" stroke-width="2"/>
<path opacity="0.931035" d="M675.703 580.187C862.029 601.904 1033.78 610.004 1160.82 605.549C1224.35 603.322 1276.66 597.956 1314.01 589.602C1332.69 585.423 1347.56 580.511 1358.21 574.906C1368.88 569.29 1375.09 563.093 1376.88 556.408C1378.66 549.724 1376.02 542.496 1368.9 534.806C1361.8 527.132 1350.36 519.153 1334.97 511.004C1304.2 494.71 1257.83 477.843 1199.28 461.386C1082.2 428.478 916.618 397.26 730.292 375.543C543.967 353.826 372.219 345.727 245.173 350.181C181.642 352.409 129.335 357.774 91.9887 366.129C73.3095 370.307 58.4367 375.22 47.7894 380.824C37.1187 386.441 30.9014 392.637 29.1181 399.321C27.3351 406.006 29.9712 413.235 37.0924 420.925C44.1978 428.599 55.6317 436.578 71.0224 444.727C101.794 461.021 148.17 477.888 206.717 494.344C323.796 527.253 489.377 558.47 675.703 580.187Z" stroke="#00D897" stroke-width="2"/>
<path opacity="0.965517" d="M689.302 584.972C877.783 595.872 1049.95 594.046 1175.92 582.289C1238.92 576.41 1290.32 568.051 1326.43 557.576C1344.48 552.337 1358.65 546.586 1368.52 540.389C1378.42 534.176 1383.78 527.649 1384.68 520.903C1385.57 514.157 1382 507.112 1373.89 499.858C1365.8 492.623 1353.35 485.332 1336.95 478.1C1304.14 463.64 1255.72 449.509 1195.22 436.488C1074.25 410.45 905.178 388.89 716.697 377.99C528.216 367.09 356.052 368.916 230.075 380.673C167.079 386.552 115.677 394.91 79.5725 405.385C61.514 410.624 47.344 416.375 37.4752 422.572C27.5812 428.785 22.2142 435.313 21.3213 442.059C20.4285 448.805 23.9994 455.849 32.1108 463.103C40.2017 470.338 52.6456 477.628 69.0534 484.861C101.858 499.321 150.282 513.453 210.777 526.474C331.752 552.512 500.821 574.072 689.302 584.972Z" stroke="#00D897" stroke-width="2"/>
</g>
</svg>
